<svg width="34" height="34" viewBox="0 0 34 34" fill="none" xmlns="http://www.w3.org/2000/svg">
<path fill-rule="evenodd" clip-rule="evenodd" d="M10.4678 1.49477C12.1126 1.41905 12.6371 1.40222 16.827 1.40222C21.0169 1.40222 21.5413 1.42045 23.1848 1.49477C24.8282 1.56909 25.95 1.83131 26.9316 2.21132C27.9594 2.59974 28.8919 3.20691 29.6632 3.99217C30.4484 4.76201 31.0542 5.6931 31.4412 6.72235C31.8226 7.70392 32.0834 8.82572 32.1592 10.4664C32.2349 12.114 32.2517 12.6384 32.2517 16.8269C32.2517 21.0169 32.2335 21.5413 32.1592 23.1861C32.0848 24.8268 31.8226 25.9486 31.4412 26.9301C31.0542 27.9595 30.4474 28.8922 29.6632 29.6631C28.8919 30.4484 27.9594 31.0542 26.9316 31.4412C25.95 31.8226 24.8282 32.0834 23.1876 32.1591C21.5413 32.2348 21.0169 32.2517 16.827 32.2517C12.6371 32.2517 12.1126 32.2334 10.4678 32.1591C8.82716 32.0848 7.70536 31.8226 6.72378 31.4412C5.69442 31.0541 4.76179 30.4473 3.9908 29.6631C3.20608 28.8928 2.59881 27.9606 2.21135 26.9315C1.83134 25.95 1.57052 24.8282 1.4948 23.1875C1.41908 21.5399 1.40225 21.0155 1.40225 16.8269C1.40225 12.637 1.42048 12.1126 1.4948 10.4692C1.56912 8.82572 1.83134 7.70392 2.21135 6.72235C2.59938 5.69321 3.20711 4.76104 3.9922 3.99077C4.76209 3.20622 5.69379 2.59896 6.72238 2.21132C7.70395 1.83131 8.82575 1.57049 10.4664 1.49477H10.4678ZM23.06 4.27122C21.4334 4.1969 20.9454 4.18148 16.827 4.18148C12.7086 4.18148 12.2206 4.1969 10.594 4.27122C9.08938 4.33993 8.27327 4.59093 7.72919 4.80267C7.00984 5.08312 6.49522 5.41546 5.95535 5.95532C5.44359 6.45319 5.04975 7.05929 4.8027 7.72916C4.59096 8.27324 4.33996 9.08934 4.27125 10.594C4.19693 12.2206 4.18151 12.7085 4.18151 16.8269C4.18151 20.9454 4.19693 21.4333 4.27125 23.0599C4.33996 24.5646 4.59096 25.3807 4.8027 25.9247C5.0495 26.5936 5.44353 27.2008 5.95535 27.6986C6.45315 28.2104 7.06032 28.6044 7.72919 28.8512C8.27327 29.063 9.08938 29.314 10.594 29.3827C12.2206 29.457 12.7072 29.4724 16.827 29.4724C20.9468 29.4724 21.4334 29.457 23.06 29.3827C24.5646 29.314 25.3807 29.063 25.9248 28.8512C26.6441 28.5708 27.1587 28.2384 27.6986 27.6986C28.2104 27.2008 28.6045 26.5936 28.8513 25.9247C29.063 25.3807 29.314 24.5646 29.3827 23.0599C29.457 21.4333 29.4725 20.9454 29.4725 16.8269C29.4725 12.7085 29.457 12.2206 29.3827 10.594C29.314 9.08934 29.063 8.27324 28.8513 7.72916C28.5708 7.00981 28.2385 6.49519 27.6986 5.95532C27.2007 5.4436 26.5946 5.04976 25.9248 4.80267C25.3807 4.59093 24.5646 4.33993 23.06 4.27122ZM14.8568 21.582C15.9571 22.04 17.1823 22.1018 18.3231 21.7569C19.4639 21.4119 20.4495 20.6816 21.1117 19.6907C21.7739 18.6997 22.0715 17.5097 21.9537 16.3237C21.8359 15.1377 21.31 14.0294 20.4658 13.1881C19.9277 12.6503 19.277 12.2385 18.5606 11.9824C17.8442 11.7262 17.08 11.6321 16.3229 11.7068C15.5657 11.7815 14.8346 12.0231 14.1821 12.4143C13.5295 12.8054 12.9718 13.3364 12.5491 13.969C12.1264 14.6015 11.8493 15.3199 11.7375 16.0725C11.6258 16.825 11.6823 17.593 11.903 18.3211C12.1237 19.0491 12.5031 19.7192 13.0139 20.2831C13.5246 20.847 14.154 21.2906 14.8568 21.582ZM11.2208 11.2208C11.957 10.4845 12.831 9.90055 13.7929 9.50211C14.7548 9.10368 15.7858 8.8986 16.827 8.8986C17.8681 8.8986 18.8991 9.10367 19.861 9.50211C20.8229 9.90055 21.697 10.4845 22.4332 11.2208C23.1694 11.957 23.7534 12.831 24.1518 13.7929C24.5503 14.7548 24.7553 15.7858 24.7553 16.8269C24.7553 17.8681 24.5503 18.8991 24.1518 19.861C23.7534 20.8229 23.1694 21.6969 22.4332 22.4331C20.9463 23.92 18.9297 24.7553 16.827 24.7553C14.7243 24.7553 12.7076 23.92 11.2208 22.4331C9.73394 20.9463 8.89863 18.9297 8.89863 16.8269C8.89863 14.7242 9.73394 12.7076 11.2208 11.2208ZM26.5137 10.0793C26.6961 9.90723 26.8422 9.70028 26.9432 9.47072C27.0442 9.24116 27.0982 8.99367 27.1018 8.74289C27.1055 8.49212 27.0588 8.24316 26.9645 8.01075C26.8702 7.77834 26.7303 7.56722 26.5529 7.38987C26.3756 7.21253 26.1644 7.07257 25.932 6.97829C25.6996 6.884 25.4507 6.8373 25.1999 6.84096C24.9491 6.84461 24.7016 6.89855 24.4721 6.99957C24.2425 7.10059 24.0356 7.24664 23.8635 7.42908C23.5288 7.78389 23.3455 8.25518 23.3526 8.74289C23.3597 9.23061 23.5566 9.69635 23.9015 10.0413C24.2464 10.3862 24.7122 10.5831 25.1999 10.5902C25.6876 10.5973 26.1589 10.414 26.5137 10.0793Z" fill="#F8F8F8"/>
</svg>
